<svg xmlns="http://www.w3.org/2000/svg" width="1200" height="630" viewBox="0 0 1200 630" role="img" aria-labelledby="title desc">
  <title id="title">CODARIS | Responsible Intelligent Systems Coalition</title>
  <desc id="desc">CODARIS is an early-stage developer coalition advancing practical, verified work for responsible intelligent systems.</desc>
  <defs>
    <linearGradient id="surface" x1="72" x2="1128" y1="72" y2="558" gradientUnits="userSpaceOnUse"><stop stop-color="#10141c"/><stop offset=".62" stop-color="#0b1016"/><stop offset="1" stop-color="#0b1518"/></linearGradient>
    <radialGradient id="cyan-glow" cx="0" cy="0" r="1" gradientTransform="matrix(300 0 0 250 914 318)" gradientUnits="userSpaceOnUse"><stop stop-color="#28c9d4" stop-opacity=".2"/><stop offset="1" stop-color="#28c9d4" stop-opacity="0"/></radialGradient>
  </defs>
  <rect width="1200" height="630" fill="#07090d"/><circle cx="914" cy="318" r="300" fill="url(#cyan-glow)"/>
  <rect x="72" y="72" width="1056" height="486" rx="28" fill="url(#surface)" stroke="#252b36" stroke-width="3"/>
  <path d="M112 184h976M112 464h976" stroke="#252b36" stroke-width="2"/>
  <circle cx="126" cy="126" r="8" fill="#d6a84f"/><circle cx="160" cy="126" r="8" fill="#f0d58c"/><circle cx="194" cy="126" r="8" fill="#a8b0bd"/>
  <text x="116" y="264" fill="#f5f7fa" font-family="Arial,Helvetica,sans-serif" font-size="76" font-weight="700" letter-spacing="2">CODARIS</text>
  <text x="120" y="310" fill="#a8b0bd" font-family="Arial,Helvetica,sans-serif" font-size="22" font-weight="700" letter-spacing="1">COALITION OF DEVELOPERS ADVANCING</text>
  <text x="120" y="342" fill="#a8b0bd" font-family="Arial,Helvetica,sans-serif" font-size="22" font-weight="700" letter-spacing="1">RESPONSIBLE INTELLIGENT SYSTEMS</text>
  <text x="120" y="398" fill="#d5dae3" font-family="Arial,Helvetica,sans-serif" font-size="20">BUILD. VERIFY. ADVANCE. Trust is engineered.</text>
  <path d="M120 426h242" stroke="#d6a84f" stroke-width="6" stroke-linecap="round"/>
  <text x="120" y="516" fill="#f0d58c" font-family="Arial,Helvetica,sans-serif" font-size="26" font-weight="600">serhatsoruklu.com/systems/codaris</text>
  <g id="codaris-og-visual" transform="translate(768 196)">
    <rect width="312" height="258" rx="30" fill="#07090d" stroke="#252b36" stroke-width="3"/>
    <rect x="22" y="22" width="268" height="214" rx="22" fill="none" stroke="#1a202b" stroke-width="2"/>
    <text x="40" y="48" fill="#59e4eb" font-family="Arial,Helvetica,sans-serif" font-size="11" font-weight="700" letter-spacing="1.8">BUILD · VERIFY · ADVANCE</text>
    <g transform="translate(137 67) scale(1.15)"><path d="M20 2 36 11v18L20 38 4 29V11Z" fill="none" stroke="#59e4eb" stroke-width="2"/><path d="m26 12-6-3-10 6v11l10 6 6-3v-5l-6 3-5-3v-6l5-3 6 3Z" fill="#59e4eb"/><path d="m29 11 3 2v14l-3 2" fill="none" stroke="#59e4eb" stroke-width="2"/></g>
    <path d="M74 168h164" fill="none" stroke="#a8b0bd" stroke-width="2"/><path d="m115 161 9 7-9 7m57-14 9 7-9 7" fill="none" stroke="#59e4eb" stroke-width="2"/>
    <circle cx="74" cy="168" r="22" fill="#10141c" stroke="#59e4eb" stroke-width="2"/><circle cx="156" cy="168" r="22" fill="#10141c" stroke="#d6a84f" stroke-width="2"/><circle cx="238" cy="168" r="22" fill="#10141c" stroke="#59e4eb" stroke-width="2"/>
    <text x="74" y="211" text-anchor="middle" fill="#a8b0bd" font-family="Arial,Helvetica,sans-serif" font-size="10" font-weight="700">BUILD</text><text x="156" y="211" text-anchor="middle" fill="#f0d58c" font-family="Arial,Helvetica,sans-serif" font-size="10" font-weight="700">VERIFY</text><text x="238" y="211" text-anchor="middle" fill="#a8b0bd" font-family="Arial,Helvetica,sans-serif" font-size="10" font-weight="700">ADVANCE</text>
  </g>
</svg>
