<svg xmlns="http://www.w3.org/2000/svg" width="1200" height="630" viewBox="0 0 1200 630" role="img" aria-labelledby="title desc">
  <title id="title">Coupyn System</title>
  <desc id="desc">Open Graph artwork for the Coupyn system page on SerhatSoruklu.com.</desc>
  <defs>
    <linearGradient id="card-surface" x1="72" x2="1128" y1="72" y2="558" gradientUnits="userSpaceOnUse">
      <stop stop-color="#10141c"/>
      <stop offset="0.58" stop-color="#0c1017"/>
      <stop offset="1" stop-color="#15130d"/>
    </linearGradient>
    <radialGradient id="gold-field" cx="0" cy="0" r="1" gradientTransform="matrix(330 0 0 260 884 316)" gradientUnits="userSpaceOnUse">
      <stop stop-color="#d6a84f" stop-opacity="0.24"/>
      <stop offset="0.56" stop-color="#d6a84f" stop-opacity="0.08"/>
      <stop offset="1" stop-color="#d6a84f" stop-opacity="0"/>
    </radialGradient>
    <radialGradient id="blue-field" cx="0" cy="0" r="1" gradientTransform="matrix(220 0 0 190 992 242)" gradientUnits="userSpaceOnUse">
      <stop stop-color="#2f6fb5" stop-opacity="0.22"/>
      <stop offset="1" stop-color="#2f6fb5" stop-opacity="0"/>
    </radialGradient>
    <filter id="soft-glow" x="-40%" y="-40%" width="180%" height="180%">
      <feGaussianBlur stdDeviation="10"/>
    </filter>
    <marker id="arrow-muted" markerWidth="6" markerHeight="6" refX="5" refY="3" orient="auto" markerUnits="strokeWidth">
      <path d="M0 0l6 3-6 3z" fill="#a8b0bd"/>
    </marker>
    <marker id="arrow-blue" markerWidth="6" markerHeight="6" refX="5" refY="3" orient="auto" markerUnits="strokeWidth">
      <path d="M0 0l6 3-6 3z" fill="#2f6fb5"/>
    </marker>
    <marker id="arrow-gold" markerWidth="6" markerHeight="6" refX="5" refY="3" orient="auto" markerUnits="strokeWidth">
      <path d="M0 0l6 3-6 3z" fill="#d6a84f"/>
    </marker>
  </defs>

  <rect width="1200" height="630" fill="#07090d"/>
  <circle cx="960" cy="226" r="212" fill="url(#blue-field)"/>
  <circle cx="908" cy="346" r="292" fill="url(#gold-field)"/>
  <rect x="72" y="72" width="1056" height="486" rx="28" fill="url(#card-surface)" stroke="#252b36" stroke-width="3"/>
  <path d="M112 184h976" stroke="#252b36" stroke-width="2"/>
  <path d="M112 464h976" stroke="#252b36" stroke-width="2"/>
  <circle cx="126" cy="126" r="8" fill="#d6a84f"/>
  <circle cx="160" cy="126" r="8" fill="#f0d58c"/>
  <circle cx="194" cy="126" r="8" fill="#a8b0bd"/>

  <text x="116" y="268" fill="#f5f7fa" font-family="Arial, Helvetica, sans-serif" font-size="72" font-weight="700" letter-spacing="0">Coupyn System</text>
  <text fill="#a8b0bd" font-family="Arial, Helvetica, sans-serif" font-size="26" font-weight="400" letter-spacing="0">
    <tspan x="120" y="328">Commerce infrastructure for trust, referral</tspan>
    <tspan x="120" y="364">discovery, and scalable marketplace signals.</tspan>
  </text>
  <path d="M120 414h246" stroke="#d6a84f" stroke-width="6" stroke-linecap="round"/>
  <text x="120" y="516" fill="#f0d58c" font-family="Arial, Helvetica, sans-serif" font-size="26" font-weight="600" letter-spacing="0">serhatsoruklu.com/systems/coupyn</text>

  <g id="coupyn-og-visual" transform="translate(768 196)">
    <rect id="coupyn-og-visual-box" width="312" height="258" rx="30" fill="#07090d" stroke="#252b36" stroke-width="3"/>
    <text x="30" y="42" fill="#d6a84f" font-family="Arial, Helvetica, sans-serif" font-size="12" font-weight="700" letter-spacing="2.1">COMMERCE SIGNALS</text>

    <g id="coupyn-og-logo" transform="translate(0 -8)">
      <text x="30" y="106" fill="#f8fafc" font-family="Open Sans, Arial, Helvetica, sans-serif" font-size="40" font-weight="700" letter-spacing="-1.6">Coupyn</text>
      <circle cx="178" cy="101" r="4.3" fill="#72acf3"/>
      <path transform="matrix(0.92 0 0 0.92 18.4 8.35)" fill="#72acf3" d="M186.54 99.54Q186.54 95.66 188.07 92.73Q189.61 89.8 192.06 88.22Q194.5 86.63 197.19 86.63Q199.83 86.63 201.3 88.19Q202.76 89.75 202.76 92.2Q202.76 94.22 201.87 95.61Q200.98 97 199.54 97Q198.63 97 198.08 96.57Q197.53 96.14 197.53 95.37Q197.53 95.03 197.62 94.6Q197.72 94.17 197.77 93.98Q198.01 93.26 198.01 92.63Q198.01 92.01 197.7 91.67Q197.38 91.34 196.81 91.34Q195.7 91.34 194.74 92.32Q193.78 93.3 193.21 94.98Q192.63 96.66 192.63 98.68Q192.63 104.25 197.48 104.25Q199.45 104.25 201.73 102.93Q204.01 101.61 206.22 98.97Q206.79 98.3 207.51 98.3Q208.14 98.3 208.5 98.87Q208.86 99.45 208.86 100.46Q208.86 102.28 207.94 103.43Q205.69 106.22 202.54 107.73Q199.4 109.24 196.47 109.24Q191.77 109.24 189.15 106.58Q186.54 103.91 186.54 99.54Z M231.24 96.47Q231.24 98.78 229.85 99.21Q226.97 100.22 223.52 100.36Q222.6 104.39 219.92 106.82Q217.23 109.24 213.82 109.24Q210.94 109.24 208.9 107.85Q206.86 106.46 205.8 104.15Q204.75 101.85 204.75 99.16Q204.75 95.51 206.14 92.66Q207.53 89.8 209.98 88.19Q212.43 86.58 215.4 86.58Q219.05 86.58 221.28 89.1Q223.52 91.62 223.9 95.32Q226.16 95.18 229.28 94.36Q229.66 94.26 229.95 94.26Q230.57 94.26 230.91 94.89Q231.24 95.51 231.24 96.47ZM218.38 99.3Q216.89 98.3 216.1 96.66Q215.31 95.03 215.31 93.21Q215.31 92.44 215.45 91.67H215.21Q213.29 91.67 212.02 93.52Q210.75 95.37 210.75 98.73Q210.75 101.37 211.78 102.76Q212.81 104.15 214.2 104.15Q215.74 104.15 216.87 102.9Q218 101.66 218.38 99.3Z M227.71 101.18Q227.71 94.94 229.49 89.32Q229.92 87.93 230.9 87.28Q231.89 86.63 233.66 86.63Q234.62 86.63 235.01 86.87Q235.39 87.11 235.39 87.78Q235.39 88.55 234.67 91.24Q234.19 93.16 233.9 94.58Q233.62 95.99 233.42 98.1Q234.72 94.36 236.52 91.77Q238.32 89.18 240.22 87.9Q242.11 86.63 243.79 86.63Q245.47 86.63 246.17 87.4Q246.86 88.17 246.86 89.75Q246.86 91.29 245.95 95.32Q245.57 97.05 245.42 97.91Q247.82 92.01 250.75 89.32Q253.68 86.63 256.22 86.63Q259.34 86.63 259.34 89.75Q259.34 91.62 258.29 96.52Q257.38 100.7 257.38 102.04Q257.38 103.96 258.77 103.96Q259.73 103.96 261.05 102.78Q262.37 101.61 264.58 98.97Q265.15 98.3 265.87 98.3Q266.5 98.3 266.86 98.87Q267.22 99.45 267.22 100.46Q267.22 102.38 266.3 103.43Q264.24 105.98 261.86 107.61Q259.49 109.24 256.46 109.24Q254.02 109.24 252.77 107.82Q251.52 106.41 251.52 103.72Q251.52 102.38 252.19 98.92Q252.82 95.9 252.82 94.74Q252.82 93.98 252.29 93.98Q251.66 93.98 250.51 95.58Q249.36 97.19 248.21 99.83Q247.06 102.47 246.34 105.4Q245.81 107.7 245.11 108.47Q244.42 109.24 242.88 109.24Q241.3 109.24 240.5 107.73Q239.71 106.22 239.71 104.06Q239.71 102.23 240.19 98.78Q240.58 95.7 240.58 94.74Q240.58 93.98 240.05 93.98Q239.33 93.98 238.22 95.7Q237.12 97.43 236.09 100.12Q235.06 102.81 234.43 105.4Q233.9 107.66 233.21 108.45Q232.51 109.24 231.02 109.24Q229.2 109.24 228.46 107.32Q227.71 105.4 227.71 101.18Z"/>
    </g>

    <path d="M30 114h252" stroke="#252b36" stroke-width="2"/>
    <circle cx="166" cy="157" r="27" fill="#2f6fb5" opacity="0.16" filter="url(#soft-glow)"/>
    <circle cx="166" cy="221" r="24" fill="#d6a84f" opacity="0.14" filter="url(#soft-glow)"/>

    <g id="coupyn-og-diagram" transform="translate(28 130)" fill="none" stroke-linecap="round" stroke-linejoin="round">
      <path data-signal-connection="trust-to-signal" d="M70 24h25" stroke="#a8b0bd" stroke-width="2" marker-end="url(#arrow-muted)"/>
      <path data-signal-connection="signal-to-offer" d="M177 24h25" stroke="#2f6fb5" stroke-width="2.5" marker-end="url(#arrow-blue)"/>
      <path data-signal-connection="offer-to-proof" d="M238 46v34q0 12-12 12h-44" stroke="#d6a84f" stroke-width="2.5" marker-end="url(#arrow-gold)"/>
      <path data-signal-connection="proof-to-trust" d="M96 92H48q-10 0-10-10V50" stroke="#d6a84f" stroke-width="2.5" marker-end="url(#arrow-gold)"/>

      <g id="coupyn-signal-trust" data-signal-node="Trust">
        <rect y="2" width="70" height="44" rx="11" fill="#10141c" stroke="#a8b0bd" stroke-width="2"/>
        <circle cx="35" cy="14" r="3.5" fill="#a8b0bd" stroke="none"/>
        <text x="35" y="35" fill="#a8b0bd" stroke="none" text-anchor="middle" font-family="Arial, Helvetica, sans-serif" font-size="11" font-weight="700" letter-spacing="0.8">TRUST</text>
      </g>
      <g id="coupyn-signal-signal" data-signal-node="Signal">
        <rect x="99" width="78" height="48" rx="12" fill="#0c1017" stroke="#2f6fb5" stroke-width="3"/>
        <circle cx="138" cy="13" r="4" fill="#6aa8ff" stroke="none"/>
        <circle cx="138" cy="13" r="8" stroke="#2f6fb5" stroke-width="1.5" opacity="0.72"/>
        <text x="138" y="37" fill="#6aa8ff" stroke="none" text-anchor="middle" font-family="Arial, Helvetica, sans-serif" font-size="11" font-weight="700" letter-spacing="0.8">SIGNAL</text>
      </g>
      <g id="coupyn-signal-offer" data-signal-node="Offer">
        <rect x="206" y="2" width="64" height="44" rx="11" fill="#0c1017" stroke="#2f6fb5" stroke-width="2"/>
        <path d="M232 12h12l4 4-10 10-10-10z" stroke="#72acf3" stroke-width="1.5"/>
        <circle cx="240" cy="16" r="1.5" fill="#72acf3" stroke="none"/>
        <text x="238" y="35" fill="#6aa8ff" stroke="none" text-anchor="middle" font-family="Arial, Helvetica, sans-serif" font-size="10.5" font-weight="700" letter-spacing="0.7">OFFER</text>
      </g>
      <g id="coupyn-signal-proof" data-signal-node="Proof">
        <rect x="96" y="70" width="86" height="44" rx="11" fill="#15130d" stroke="#d6a84f" stroke-width="2.5"/>
        <path d="m128 84 6 6 13-13" stroke="#f0d58c" stroke-width="2"/>
        <text x="139" y="105" fill="#f0d58c" stroke="none" text-anchor="middle" font-family="Arial, Helvetica, sans-serif" font-size="11" font-weight="700" letter-spacing="0.8">PROOF</text>
      </g>
    </g>
  </g>
</svg>
